<svg width="300" height="300" viewBox="0 0 300 300" fill="none" xmlns="http://www.w3.org/2000/svg">
<path d="M288.335 91.5469C280.727 73.5418 270.076 57.8191 256.128 43.8715C242.181 29.9239 226.458 19.0194 208.453 11.6653C189.941 4.05748 170.161 0 150.127 0C130.093 0 110.313 4.05748 91.8005 11.6653C73.5418 19.0194 57.8191 29.9239 43.8715 43.8715C29.9239 57.8191 19.273 73.5418 11.6653 91.5469C4.05748 110.059 0 129.586 0 149.873C0 200.085 24.8521 246.746 66.9484 274.894C68.47 275.909 70.4987 275.402 71.2595 273.88C72.2739 272.358 71.7667 270.33 70.2451 269.569C30.4311 242.942 6.33981 198.309 6.33981 149.873C6.33981 111.327 21.3018 75.317 48.4362 48.1826C75.5706 21.0482 111.581 6.08622 149.873 6.08622C188.166 6.08622 224.429 21.0482 251.564 48.1826C278.698 75.317 293.66 111.327 293.66 149.873C293.66 188.419 278.952 224.429 251.564 251.564C224.176 278.698 188.419 293.66 149.873 293.66C137.447 293.66 125.021 292.139 113.356 288.842C111.834 288.588 109.806 289.349 109.552 291.124C109.298 292.646 110.059 294.675 111.834 294.928C124.26 297.971 137.194 300 150.127 300C170.414 300 189.941 295.943 208.453 288.335C226.458 280.727 242.181 270.076 256.128 256.128C270.076 242.181 280.727 226.458 288.335 208.453C296.196 189.941 300 170.161 300 150.127C300 129.586 295.943 110.059 288.335 91.5469Z" fill="#585A5E"/>
<path d="M54.0148 97.1255C52.4932 96.1111 50.4645 96.8719 49.9573 98.3935C41.8423 114.623 37.5312 131.614 37.5312 149.873C37.5312 179.797 49.1965 208.199 70.4983 229.501C91.8001 250.803 119.949 262.468 150.126 262.468C180.304 262.468 208.453 250.803 229.754 229.501C251.056 208.199 262.721 180.05 262.721 149.873C262.721 119.695 251.056 91.5465 229.754 70.2447C208.453 48.9429 180.05 37.5312 149.873 37.5312C126.289 37.5312 103.719 44.8854 84.4459 58.3258C83.1779 59.3402 82.9243 61.1154 83.9387 62.6369C84.9531 63.9049 86.7282 64.1585 88.2498 63.1441C106.255 50.2109 127.81 43.6175 149.873 43.6175C178.275 43.6175 204.902 54.7755 224.936 74.8094C244.97 94.8432 256.128 121.47 256.128 149.873C256.128 178.275 244.97 204.902 224.936 224.936C204.649 244.463 178.275 255.621 149.873 255.621C121.47 255.621 94.8432 244.463 74.8094 224.429C55.0291 204.902 43.8711 178.275 43.8711 149.873C43.8711 132.882 47.675 116.399 55.5363 101.183C56.2971 99.6614 55.5363 97.8863 54.0148 97.1255Z" fill="#585A5E"/>
<path d="M190.195 90.2787C191.209 88.7572 190.448 86.7284 189.18 85.9676C177.515 78.6135 163.821 74.8096 150.127 74.8096C108.791 74.8096 75.0635 108.537 75.0635 149.873C75.0635 191.209 108.791 224.936 150.127 224.936C191.462 224.936 225.19 191.209 225.19 149.873C225.19 143.28 224.176 136.686 222.654 130.346C222.401 128.825 220.372 127.81 218.85 128.064C217.329 128.318 216.315 130.346 216.568 131.868C218.09 137.447 218.85 143.787 218.85 149.873C218.85 187.658 187.912 218.597 150.127 218.597C112.342 218.597 81.1497 187.658 81.1497 149.873C81.1497 112.088 112.088 81.1494 149.873 81.1494C162.553 81.1494 174.725 84.6997 185.883 91.2931C187.151 92.0539 189.18 91.8003 190.195 90.2787Z" fill="#585A5E"/>
<path d="M149.874 181.065C167.1 181.065 181.065 167.1 181.065 149.874C181.065 132.647 167.1 118.682 149.874 118.682C132.647 118.682 118.682 132.647 118.682 149.874C118.682 167.1 132.647 181.065 149.874 181.065Z" fill="#585A5E"/>
<path d="M209.467 118.428C214.649 118.428 218.85 114.227 218.85 109.045C218.85 103.863 214.649 99.6621 209.467 99.6621C204.285 99.6621 200.084 103.863 200.084 109.045C200.084 114.227 204.285 118.428 209.467 118.428Z" fill="#585A5E"/>
<path d="M65.6798 87.2356C70.8618 87.2356 75.0627 83.0347 75.0627 77.8527C75.0627 72.6706 70.8618 68.4697 65.6798 68.4697C60.4978 68.4697 56.2969 72.6706 56.2969 77.8527C56.2969 83.0347 60.4978 87.2356 65.6798 87.2356Z" fill="#585A5E"/>
<path d="M90.5323 293.66C95.7144 293.66 99.9153 289.46 99.9153 284.277C99.9153 279.095 95.7144 274.895 90.5323 274.895C85.3503 274.895 81.1494 279.095 81.1494 284.277C81.1494 289.46 85.3503 293.66 90.5323 293.66Z" fill="#585A5E"/>
</svg>
